<svg width="26" height="26" viewBox="0 0 26 26" fill="none" xmlns="http://www.w3.org/2000/svg">
<g clip-path="url(#clip0_152_143)">
<path d="M22.0764 8.96674L21.8195 9.55599C21.6316 9.98738 21.0349 9.98738 20.8469 9.55599L20.5901 8.96674C20.1323 7.91607 19.3077 7.07955 18.2788 6.62192L17.4874 6.26998C17.0596 6.07968 17.0596 5.45705 17.4874 5.26675L18.2345 4.93448C19.2899 4.46507 20.1293 3.5976 20.5792 2.51124L20.8429 1.87447C21.0268 1.43068 21.6397 1.43068 21.8235 1.87447L22.0872 2.51124C22.5372 3.5976 23.3766 4.46507 24.432 4.93448L25.179 5.26675C25.6069 5.45705 25.6069 6.07968 25.179 6.26998L24.3877 6.62192C23.3588 7.07955 22.5342 7.91607 22.0764 8.96674ZM23.4166 13C23.4166 12.5367 23.3864 12.0806 23.3277 11.6333C22.7014 11.844 22.0306 11.9583 21.3333 11.9583C20.1948 11.9583 19.1275 11.6539 18.2083 11.1221V16.125H16.1249V9.87496H16.6747C15.685 8.76922 15.0833 7.30903 15.0833 5.70829C15.0833 4.71574 15.3146 3.77722 15.7264 2.94374C14.8573 2.7087 13.9433 2.58329 12.9999 2.58329C7.24695 2.58329 2.58325 7.24699 2.58325 13C2.58325 15.8764 3.74918 18.4806 5.63422 20.3657L2.58325 23.4166H12.9999C18.7528 23.4166 23.4166 18.7529 23.4166 13ZM11.9583 6.74996H14.0416V19.25H11.9583V6.74996ZM7.79159 16.125V9.87496H9.87492V16.125H7.79159Z" fill="#0157FF"/>
</g>
<defs>
<clipPath id="clip0_152_143">
<rect width="25" height="25" fill="white" transform="translate(0.5 0.5)"/>
</clipPath>
</defs>
</svg>
