<svg width="26" height="25" viewBox="0 0 26 25" fill="none" xmlns="http://www.w3.org/2000/svg">
<path d="M19.1673 17.3092L23.6285 21.7704L22.1554 23.2435L17.6942 18.7823C16.0902 20.0657 14.0559 20.8334 11.8434 20.8334C6.66838 20.8334 2.46838 16.6334 2.46838 11.4584C2.46838 6.28337 6.66838 2.08337 11.8434 2.08337C17.0184 2.08337 21.2184 6.28337 21.2184 11.4584C21.2184 13.6709 20.4507 15.7051 19.1673 17.3092ZM17.0774 16.5363C18.3512 15.2236 19.135 13.433 19.135 11.4584C19.135 7.42973 15.872 4.16671 11.8434 4.16671C7.81474 4.16671 4.55172 7.42973 4.55172 11.4584C4.55172 15.487 7.81474 18.75 11.8434 18.75C13.818 18.75 15.6086 17.9662 16.9213 16.6924L17.0774 16.5363ZM13.0704 7.47529C12.3469 7.80194 11.8434 8.52969 11.8434 9.37504C11.8434 10.5257 12.7761 11.4584 13.9267 11.4584C14.772 11.4584 15.4998 10.9548 15.8265 10.2314C15.9458 10.6193 16.01 11.0313 16.01 11.4584C16.01 13.7595 14.1445 15.625 11.8434 15.625C9.5422 15.625 7.67672 13.7595 7.67672 11.4584C7.67672 9.15719 9.5422 7.29171 11.8434 7.29171C12.2705 7.29171 12.6824 7.35595 13.0704 7.47529Z" fill="#545C66"/>
</svg>
